<?xml version="1.0" standalone="no"?>
<!DOCTYPE svg PUBLIC "-//W3C//DTD SVG 20010904//EN"
 "http://www.w3.org/TR/2001/REC-SVG-20010904/DTD/svg10.dtd">
<svg version="1.0" xmlns="http://www.w3.org/2000/svg"
 width="200.000000pt" height="200.000000pt" viewBox="0 0 200.000000 200.000000"
 preserveAspectRatio="xMidYMid meet">
<metadata>
Created by potrace 1.11, written by Peter Selinger 2001-2013
</metadata>
<g transform="translate(0.000000,200.000000) scale(0.100000,-0.100000)"
fill="#000000" stroke="none">
<path d="M892 1900 c-381 -52 -675 -311 -773 -680 -32 -121 -33 -320 0 -440
43 -164 152 -347 268 -451 191 -172 465 -260 709 -230 243 30 462 149 605 329
113 141 178 297 200 475 45 365 -164 744 -499 908 -152 73 -358 109 -510 89z
m258 -51 c55 -11 230 -86 230 -98 0 -4 14 -15 31 -25 18 -10 40 -26 49 -35 10
-9 32 -27 51 -41 56 -43 154 -166 188 -237 18 -37 37 -75 41 -84 16 -31 5 -30
-140 6 -106 27 -296 16 -430 -24 -92 -28 -115 -32 -185 -27 -48 3 -112 16
-160 32 -105 35 -326 45 -415 19 -97 -29 -140 -38 -145 -33 -11 10 29 102 75
171 49 76 201 233 261 269 184 113 356 147 549 107z m358 -633 c23 -8 62 -29
87 -46 43 -30 45 -33 45 -81 0 -46 -1 -49 -16 -35 -22 23 -37 20 -24 -4 9 -16
8 -18 -5 -14 -11 4 -13 2 -9 -9 3 -8 -6 -26 -21 -41 -23 -23 -24 -30 -3 -27 3
0 5 -7 3 -17 -1 -10 -9 -16 -21 -14 -15 3 -16 1 -5 -12 11 -13 11 -16 0 -16
-9 0 -10 -3 -2 -11 14 -14 30 -4 54 35 12 19 19 25 19 14 0 -28 -56 -74 -107
-89 -26 -8 -87 -14 -134 -13 -113 1 -172 28 -209 94 -21 39 -25 61 -28 155 -4
123 -1 130 61 146 51 13 266 3 315 -15z m-834 5 c3 -5 -2 -15 -11 -22 -47 -40
-59 -172 -20 -230 50 -74 109 -76 154 -7 37 56 40 154 6 209 -28 44 -28 45 -3
52 11 3 17 1 14 -4 -3 -6 5 -7 19 -4 20 5 29 1 43 -20 14 -21 16 -41 11 -113
-3 -48 -11 -103 -18 -122 -15 -44 -55 -89 -96 -106 -48 -21 -160 -28 -225 -15
-119 25 -168 90 -168 226 l0 80 50 28 c73 41 230 72 244 48z m356 -171 c10 -5
24 -27 31 -47 32 -102 93 -179 173 -221 46 -24 61 -27 163 -27 111 0 127 -10
36 -21 -26 -4 -54 -11 -60 -17 -9 -6 -13 -5 -14 4 0 11 -2 11 -6 -1 -7 -17
-33 -45 -33 -35 0 3 -6 3 -12 -2 -7 -4 -15 -8 -18 -9 -3 0 -18 -6 -35 -14 -16
-7 -46 -14 -65 -17 -19 -2 -39 -8 -44 -13 -5 -5 1 -7 15 -4 l24 5 -24 -11
c-14 -6 -31 -8 -38 -6 -7 3 -13 1 -13 -4 0 -6 -12 -10 -27 -9 -25 0 -26 1 -8
9 18 8 17 9 -8 9 -16 1 -26 -2 -24 -6 3 -5 -32 -6 -76 -5 -45 2 -85 8 -88 14
-3 5 -24 11 -45 13 -21 2 -61 13 -89 26 -27 12 -56 22 -63 22 -8 0 -19 11 -25
24 -8 18 -18 23 -51 23 -23 1 -54 6 -70 13 -25 11 -20 12 46 9 200 -10 315 71
378 268 20 61 24 67 37 55 8 -9 23 -20 33 -25z m-379 -494 c24 -21 70 -49 101
-64 57 -27 82 -50 33 -32 -88 33 -191 113 -221 172 -22 43 -16 44 15 1 15 -21
48 -56 72 -77z m770 71 c-33 -55 -107 -116 -177 -149 -36 -17 -68 -28 -71 -25
-3 3 24 20 60 37 71 33 140 90 177 144 31 44 39 39 11 -7z m-269 -94 c11 -55
-17 -86 -89 -98 -40 -6 -43 -5 -53 21 -21 55 -11 68 60 80 36 6 68 12 72 13 3
0 8 -7 10 -16z m-228 1 l47 -7 -3 -46 -3 -46 -37 2 c-46 3 -86 28 -94 59 -11
44 3 50 90 38z"/>
<path d="M1220 1198 c-62 -67 -61 -196 2 -258 32 -32 56 -37 91 -19 85 46 99
202 25 278 -41 42 -79 42 -118 -1z"/>
<path d="M407 1053 c-11 -10 -8 -81 3 -88 6 -4 8 -10 5 -15 -3 -5 8 -24 24
-42 17 -18 31 -27 31 -20 0 6 -5 12 -11 12 -7 0 -9 9 -6 21 3 12 0 22 -9 26
-8 3 -14 14 -14 24 0 10 -4 19 -10 19 -15 0 -12 57 3 63 6 3 7 6 1 6 -6 1 -14
-2 -17 -6z"/>
</g>
</svg>
